<?xml version="1.0" encoding="UTF-8"?>
<!DOCTYPE svg PUBLIC "-//W3C//DTD SVG 1.1//EN" "http://www.w3.org/Graphics/SVG/1.1/DTD/svg11.dtd">
<svg xmlns="http://www.w3.org/2000/svg" version="1.1" width="264px" height="129px" style="shape-rendering:geometricPrecision; text-rendering:geometricPrecision; image-rendering:optimizeQuality; fill-rule:evenodd; clip-rule:evenodd" xmlns:xlink="http://www.w3.org/1999/xlink">
<g><path style="opacity:1" fill="#fdfdfd" d="M -0.5,-0.5 C 87.5,-0.5 175.5,-0.5 263.5,-0.5C 263.5,42.5 263.5,85.5 263.5,128.5C 175.5,128.5 87.5,128.5 -0.5,128.5C -0.5,85.5 -0.5,42.5 -0.5,-0.5 Z"/></g>
<g><path style="opacity:1" fill="#8e8f91" d="M 157.5,15.5 C 159.369,17.6353 160.036,20.3019 159.5,23.5C 157.167,24.1667 154.833,24.8333 152.5,25.5C 152.739,23.5328 152.406,21.6995 151.5,20C 153.684,18.6366 155.684,17.1366 157.5,15.5 Z"/></g>
<g><path style="opacity:1" fill="#662884" d="M 124.5,28.5 C 122.708,28.634 121.042,28.3007 119.5,27.5C 118.535,23.1674 120.035,20.1674 124,18.5C 126.291,19.1241 127.457,20.6241 127.5,23C 127.387,25.3987 126.387,27.2321 124.5,28.5 Z"/></g>
<g><path style="opacity:1" fill="#9d7fa9" d="M 136.5,30.5 C 136.158,29.6618 135.492,29.3284 134.5,29.5C 136.225,28.095 138.225,27.595 140.5,28C 139.307,29.0946 137.973,29.928 136.5,30.5 Z"/></g>
<g><path style="opacity:1" fill="#652683" d="M 119.5,28.5 C 121.462,30.0173 123.795,30.6839 126.5,30.5C 128.369,30.4932 130.036,30.1599 131.5,29.5C 132.5,29.5 133.5,29.5 134.5,29.5C 135.492,29.3284 136.158,29.6618 136.5,30.5C 131.203,32.7943 128.203,36.7943 127.5,42.5C 126.178,42.33 125.011,42.6634 124,43.5C 123.167,46.5 122.333,49.5 121.5,52.5C 112.283,42.6728 108.783,31.0061 111,17.5C 111.759,20.7846 113.092,23.7846 115,26.5C 116.33,27.5822 117.83,28.2488 119.5,28.5 Z"/></g>
<g><path style="opacity:1" fill="#b299bd" d="M 119.5,27.5 C 121.042,28.3007 122.708,28.634 124.5,28.5C 126.607,29.4682 128.941,29.8016 131.5,29.5C 130.036,30.1599 128.369,30.4932 126.5,30.5C 123.795,30.6839 121.462,30.0173 119.5,28.5C 119.5,28.1667 119.5,27.8333 119.5,27.5 Z"/></g>
<g><path style="opacity:1" fill="#a3a2a6" d="M 148.5,30.5 C 149.283,32.3432 149.95,34.3432 150.5,36.5C 149.311,37.4287 147.978,37.762 146.5,37.5C 146.767,35.0347 147.434,32.7014 148.5,30.5 Z"/></g>
<g><path style="opacity:1" fill="#c9c9c9" d="M 173.5,45.5 C 173.737,44.209 173.404,43.209 172.5,42.5C 172.905,36.8522 172.238,31.3522 170.5,26C 170.944,24.2382 171.444,24.4049 172,26.5C 174.446,32.8399 174.946,39.1732 173.5,45.5 Z"/></g>
<g><path style="opacity:1" fill="#f29815" d="M 166.5,26.5 C 169.606,49.5756 159.939,64.4089 137.5,71C 144.855,66.5903 149.189,60.2569 150.5,52C 150.792,48.7857 149.959,45.9523 148,43.5C 145.094,40.9627 141.927,38.796 138.5,37C 143.675,38.3467 149.009,38.68 154.5,38C 150.99,36.0934 149.824,33.2601 151,29.5C 153.333,26.8333 155.667,26.8333 158,29.5C 158.769,32.0991 158.602,34.5991 157.5,37C 163.02,35.9625 166.02,32.4625 166.5,26.5 Z"/></g>
<g><path style="opacity:1" fill="#909192" d="M 172.5,42.5 C 173.404,43.209 173.737,44.209 173.5,45.5C 170.437,65.0639 159.103,76.5639 139.5,80C 114.762,81.5888 99.2621,70.4222 93,46.5C 91.3334,26.4938 99.5001,12.1605 117.5,3.5C 118.696,3.84569 118.696,4.34569 117.5,5C 101.472,14.2284 94.9716,28.0617 98,46.5C 99.3688,51.9553 101.869,56.7887 105.5,61C 110.799,60.8081 116.133,60.6414 121.5,60.5C 122.833,55.1667 124.167,49.8333 125.5,44.5C 129.85,42.9549 134.35,41.9549 139,41.5C 141.47,41.3403 143.636,42.0069 145.5,43.5C 139.924,45.2484 134.257,46.5817 128.5,47.5C 126.869,52.3592 125.702,57.3592 125,62.5C 120.282,63.8593 115.449,64.8593 110.5,65.5C 119.519,73.9238 130.186,76.7571 142.5,74C 159.172,69.8286 169.172,59.3286 172.5,42.5 Z"/></g>
<g><path style="opacity:1" fill="#733d8c" d="M 128.5,51.5 C 132.62,55.4457 136.953,59.279 141.5,63C 137.252,62.3849 133.252,60.8849 129.5,58.5C 128.526,56.2573 128.192,53.924 128.5,51.5 Z"/></g>
<g><path style="opacity:1" fill="#d6d6d7" d="M 156.5,86.5 C 156.5,95.1667 156.5,103.833 156.5,112.5C 158.167,112.5 159.833,112.5 161.5,112.5C 161.182,107.968 161.515,103.634 162.5,99.5C 162.5,104.167 162.5,108.833 162.5,113.5C 160.167,113.5 157.833,113.5 155.5,113.5C 155.173,104.318 155.507,95.3178 156.5,86.5 Z"/></g>
<g><path style="opacity:1" fill="#969799" d="M 177.5,86.5 C 181.35,86.7007 182.35,88.5341 180.5,92C 175.722,92.0734 174.722,90.2401 177.5,86.5 Z"/></g>
<g><path style="opacity:1" fill="#8b8c8e" d="M 26.5,88.5 C 31.5,88.5 36.5,88.5 41.5,88.5C 41.5,90.1667 41.5,91.8333 41.5,93.5C 39.8333,93.5 38.1667,93.5 36.5,93.5C 36.5,99.8333 36.5,106.167 36.5,112.5C 34.8333,112.5 33.1667,112.5 31.5,112.5C 31.5,106.167 31.5,99.8333 31.5,93.5C 29.8333,93.5 28.1667,93.5 26.5,93.5C 26.5,91.8333 26.5,90.1667 26.5,88.5 Z"/></g>
<g><path style="opacity:1" fill="#8e8f91" d="M 123.5,88.5 C 126.394,88.0423 128.894,88.709 131,90.5C 133.194,97.948 135.694,105.281 138.5,112.5C 134.231,114.312 131.898,112.979 131.5,108.5C 128.5,108.5 125.5,108.5 122.5,108.5C 122.166,112.648 119.833,114.315 115.5,113.5C 117.772,105.017 120.439,96.6842 123.5,88.5 Z"/></g>
<g><path style="opacity:1" fill="#8a8b8c" d="M 176.5,95.5 C 178.167,95.5 179.833,95.5 181.5,95.5C 181.5,101.167 181.5,106.833 181.5,112.5C 179.833,112.5 178.167,112.5 176.5,112.5C 176.5,106.833 176.5,101.167 176.5,95.5 Z"/></g>
<g><path style="opacity:1" fill="#919294" d="M 46.5,94.5 C 55.6464,92.7424 59.6464,96.4091 58.5,105.5C 54.774,105.177 51.1073,105.511 47.5,106.5C 49.6518,109.633 52.4851,110.3 56,108.5C 58.301,109.676 58.6343,111.01 57,112.5C 44.9334,115.1 40.2667,110.434 43,98.5C 44.3756,97.2949 45.5423,95.9616 46.5,94.5 Z"/></g>
<g><path style="opacity:1" fill="#e8e9e9" d="M 126.5,94.5 C 128.41,97.4525 129.41,100.786 129.5,104.5C 127.396,104.799 125.396,104.466 123.5,103.5C 124.659,100.519 125.659,97.5186 126.5,94.5 Z"/></g>
<g><path style="opacity:1" fill="#8f9092" d="M 229.5,94.5 C 237.533,93.2098 241.533,96.5432 241.5,104.5C 237.426,104.701 233.426,105.368 229.5,106.5C 229.977,107.478 230.643,108.311 231.5,109C 234.531,109.495 237.531,109.329 240.5,108.5C 240.773,110.451 240.107,111.951 238.5,113C 227.45,115.073 222.95,110.573 225,99.5C 226.193,97.5029 227.693,95.8362 229.5,94.5 Z"/></g>
<g><path style="opacity:1" fill="#f1f2f2" d="M 48.5,98.5 C 51.9496,97.7564 53.6162,99.0897 53.5,102.5C 51.5,102.5 49.5,102.5 47.5,102.5C 47.4326,101.041 47.7659,99.7079 48.5,98.5 Z"/></g>
<g><path style="opacity:1" fill="#8f9092" d="M 82.5,94.5 C 89.8413,95.5398 97.1746,95.7065 104.5,95C 105.333,95.8333 106.167,96.6667 107,97.5C 107.499,102.823 107.666,108.156 107.5,113.5C 105.533,113.739 103.699,113.406 102,112.5C 101.501,107.845 101.334,103.179 101.5,98.5C 100.167,98.5 98.8333,98.5 97.5,98.5C 97.6658,103.179 97.4992,107.845 97,112.5C 95.3005,113.406 93.4672,113.739 91.5,113.5C 91.6658,108.821 91.4992,104.155 91,99.5C 89.6439,98.6198 88.1439,98.2865 86.5,98.5C 86.5,103.167 86.5,107.833 86.5,112.5C 84.8333,112.5 83.1667,112.5 81.5,112.5C 81.2114,106.409 81.5447,100.409 82.5,94.5 Z"/></g>
<g><path style="opacity:1" fill="#8f9092" d="M 144.5,94.5 C 146.857,94.3367 149.19,94.5034 151.5,95C 152.38,96.3561 152.714,97.8561 152.5,99.5C 145.697,98.7348 143.697,101.568 146.5,108C 148.473,108.495 150.473,108.662 152.5,108.5C 153.259,112.24 151.759,113.907 148,113.5C 141.12,111.934 138.454,107.601 140,100.5C 141.332,98.34 142.832,96.34 144.5,94.5 Z"/></g>
<g><path style="opacity:1" fill="#909192" d="M 190.5,94.5 C 195.384,93.8606 199.217,95.5273 202,99.5C 202.743,101.441 202.576,103.274 201.5,105C 197.789,105.175 194.122,105.675 190.5,106.5C 190.977,107.478 191.643,108.311 192.5,109C 195.236,109.422 197.902,109.422 200.5,109C 201.833,110.333 201.833,111.667 200.5,113C 188.84,115.671 184.007,111.171 186,99.5C 187.025,97.313 188.525,95.6464 190.5,94.5 Z"/></g>
<g><path style="opacity:1" fill="#f4f4f4" d="M 191.5,98.5 C 194.95,97.7564 196.616,99.0897 196.5,102.5C 194.5,102.5 192.5,102.5 190.5,102.5C 190.433,101.041 190.766,99.7079 191.5,98.5 Z"/></g>
<g><path style="opacity:1" fill="#f3f3f3" d="M 230.5,98.5 C 233.95,97.7564 235.616,99.0897 235.5,102.5C 233.5,102.5 231.5,102.5 229.5,102.5C 229.433,101.041 229.766,99.7079 230.5,98.5 Z"/></g>
<g><path style="opacity:1" fill="#8f9091" d="M 156.5,86.5 C 158.167,86.5 159.833,86.5 161.5,86.5C 161.183,89.5719 161.516,92.5719 162.5,95.5C 166.571,93.6798 169.738,94.6798 172,98.5C 172.499,103.489 172.666,108.489 172.5,113.5C 170.5,113.5 168.5,113.5 166.5,113.5C 166.666,108.821 166.499,104.155 166,99.5C 164.708,98.2089 163.542,98.2089 162.5,99.5C 161.515,103.634 161.182,107.968 161.5,112.5C 159.833,112.5 158.167,112.5 156.5,112.5C 156.5,103.833 156.5,95.1667 156.5,86.5 Z"/></g>
<g><path style="opacity:1" fill="#8c8d8f" d="M 204.5,95.5 C 206.5,95.5 208.5,95.5 210.5,95.5C 212.061,111.286 214.061,111.286 216.5,95.5C 218.604,95.2011 220.604,95.5344 222.5,96.5C 220.5,101.833 218.5,107.167 216.5,112.5C 214.305,113.769 212.139,113.769 210,112.5C 207.4,107.109 205.567,101.442 204.5,95.5 Z"/></g>
<g><path style="opacity:1" fill="#919294" d="M 63.5,94.5 C 67.6372,94.1463 71.6372,94.6463 75.5,96C 76,96.5 76.5,97 77,97.5C 77.8289,102.533 77.6623,107.533 76.5,112.5C 71.2508,114.294 66.4175,113.628 62,110.5C 60.9632,103.395 64.1299,100.395 71.5,101.5C 71.5,100.5 71.5,99.5 71.5,98.5C 68.8127,98.6641 66.146,98.4974 63.5,98C 62.3157,96.8545 62.3157,95.6879 63.5,94.5 Z"/></g>
<g><path style="opacity:1" fill="#eeeeef" d="M 67.5,104.5 C 69.1667,104.5 70.8333,104.5 72.5,104.5C 72.5,106.167 72.5,107.833 72.5,109.5C 67.58,110.585 65.9134,108.918 67.5,104.5 Z"/></g>
</svg>
