<?xml version="1.0" encoding="UTF-8"?>
<!DOCTYPE svg PUBLIC "-//W3C//DTD SVG 1.1//EN" "http://www.w3.org/Graphics/SVG/1.1/DTD/svg11.dtd">
<svg xmlns="http://www.w3.org/2000/svg" version="1.1" width="264px" height="129px" style="shape-rendering:geometricPrecision; text-rendering:geometricPrecision; image-rendering:optimizeQuality; fill-rule:evenodd; clip-rule:evenodd" xmlns:xlink="http://www.w3.org/1999/xlink">
<g><path style="opacity:0.435" fill="#636366" d="M 106.5,13.5 C 106.5,12.1667 106.5,10.8333 106.5,9.5C 112.629,4.43271 119.629,1.59937 127.5,1C 119.545,3.64084 112.545,7.80751 106.5,13.5 Z"/></g>
<g><path style="opacity:1" fill="#848583" d="M 156.5,25.5 C 154.5,25.5 152.5,25.5 150.5,25.5C 151.028,24.2794 151.695,23.1127 152.5,22C 150.595,21.1739 150.261,20.0072 151.5,18.5C 153.833,17.1667 156.167,15.8333 158.5,14.5C 159.808,17.7063 160.475,21.0396 160.5,24.5C 158.901,24.2322 157.568,24.5655 156.5,25.5 Z"/></g>
<g><path style="opacity:1" fill="#5c2777" d="M 125.5,28.5 C 123.027,24.2637 121.694,24.597 121.5,29.5C 117.346,29.4283 114.68,27.4283 113.5,23.5C 114.806,24.9678 116.306,26.3012 118,27.5C 117.514,22.657 119.514,19.3237 124,17.5C 128.971,20.711 129.471,24.3777 125.5,28.5 Z"/></g>
<g><path style="opacity:0.318" fill="#664476" d="M 113.5,22.5 C 112.5,22.5 111.5,22.5 110.5,22.5C 110.802,25.0593 110.468,27.3926 109.5,29.5C 109.173,24.7863 109.507,20.1196 110.5,15.5C 112.113,17.4927 113.113,19.826 113.5,22.5 Z"/></g>
<g><path style="opacity:0.078" fill="#a79c6f" d="M 150.5,25.5 C 152.5,25.5 154.5,25.5 156.5,25.5C 156.5,26.1667 156.167,26.5 155.5,26.5C 154.022,26.238 152.689,26.5713 151.5,27.5C 151.058,28.7387 150.391,29.7387 149.5,30.5C 149.5,29.8333 149.167,29.5 148.5,29.5C 149.167,28.1667 149.833,26.8333 150.5,25.5 Z"/></g>
<g><path style="opacity:0.894" fill="#d49639" d="M 155.5,26.5 C 156.694,27.2719 157.694,28.2719 158.5,29.5C 152.56,27.1011 150.227,29.1011 151.5,35.5C 150.833,35.5 150.5,35.1667 150.5,34.5C 150.5,33.8333 150.167,33.5 149.5,33.5C 149.5,32.5 149.5,31.5 149.5,30.5C 150.391,29.7387 151.058,28.7387 151.5,27.5C 152.689,26.5713 154.022,26.238 155.5,26.5 Z"/></g>
<g><path style="opacity:0.702" fill="#503858" d="M 137.5,30.5 C 135.735,29.5386 133.735,29.2053 131.5,29.5C 134.418,28.6345 137.418,27.6345 140.5,26.5C 141.521,27.0016 141.688,27.6683 141,28.5C 139.887,29.305 138.721,29.9717 137.5,30.5 Z"/></g>
<g><path style="opacity:1" fill="#868689" d="M 106.5,9.5 C 106.5,10.8333 106.5,12.1667 106.5,13.5C 98.2496,24.6629 95.9163,36.9962 99.5,50.5C 99.5,51.5 99.5,52.5 99.5,53.5C 97.6096,53.7035 96.1096,53.0368 95,51.5C 94.6668,47.9693 93.8335,45.3027 92.5,43.5C 91.4691,29.9485 96.1358,18.6151 106.5,9.5 Z"/></g>
<g><path style="opacity:1" fill="#5e237d" d="M 113.5,22.5 C 113.5,22.8333 113.5,23.1667 113.5,23.5C 114.68,27.4283 117.346,29.4283 121.5,29.5C 121.694,24.597 123.027,24.2637 125.5,28.5C 127.265,29.4614 129.265,29.7947 131.5,29.5C 133.735,29.2053 135.735,29.5386 137.5,30.5C 133.139,32.861 129.806,36.1943 127.5,40.5C 124.931,41.3956 122.931,43.0623 121.5,45.5C 119.604,46.4656 117.604,46.7989 115.5,46.5C 112.321,41.2984 110.321,35.6317 109.5,29.5C 110.468,27.3926 110.802,25.0593 110.5,22.5C 111.5,22.5 112.5,22.5 113.5,22.5 Z"/></g>
<g><path style="opacity:1" fill="#dc962d" d="M 165.5,27.5 C 167.43,31.3727 168.097,35.706 167.5,40.5C 167.541,45.0445 166.208,49.0445 163.5,52.5C 165.147,46.9793 166.147,41.3127 166.5,35.5C 166.649,34.448 166.483,33.448 166,32.5C 164.871,34.1412 163.371,35.1412 161.5,35.5C 163.778,33.3478 165.112,30.6812 165.5,27.5 Z"/></g>
<g><path style="opacity:1" fill="#f0930e" d="M 158.5,29.5 C 159.314,31.631 159.814,33.9644 160,36.5C 160.383,35.944 160.883,35.6107 161.5,35.5C 163.371,35.1412 164.871,34.1412 166,32.5C 166.483,33.448 166.649,34.448 166.5,35.5C 165.553,37.4554 164.219,37.7887 162.5,36.5C 161.158,38.0049 159.492,38.6715 157.5,38.5C 157.5,39.5 157.5,40.5 157.5,41.5C 155.381,41.5323 154.048,40.5323 153.5,38.5C 152.833,37.8333 152.167,37.1667 151.5,36.5C 151.5,36.1667 151.5,35.8333 151.5,35.5C 150.227,29.1011 152.56,27.1011 158.5,29.5 Z"/></g>
<g><path style="opacity:0.62" fill="#836636" d="M 148.5,29.5 C 149.167,29.5 149.5,29.8333 149.5,30.5C 149.5,31.5 149.5,32.5 149.5,33.5C 150.167,33.5 150.5,33.8333 150.5,34.5C 150.5,35.1667 150.833,35.5 151.5,35.5C 151.5,35.8333 151.5,36.1667 151.5,36.5C 150.833,36.8333 150.167,37.1667 149.5,37.5C 148.167,37.5 146.833,37.5 145.5,37.5C 145.94,34.6202 146.94,31.9535 148.5,29.5 Z"/></g>
<g><path style="opacity:0.224" fill="#c09253" d="M 167.5,40.5 C 168.097,35.706 167.43,31.3727 165.5,27.5C 165.709,26.0783 166.209,24.745 167,23.5C 167.333,23.8333 167.667,24.1667 168,24.5C 168.817,30.0164 168.651,35.3497 167.5,40.5 Z"/></g>
<g><path style="opacity:0.514" fill="#a9926b" d="M 143.5,37.5 C 142.209,37.2627 141.209,37.596 140.5,38.5C 138.91,38.3718 137.577,37.7051 136.5,36.5C 139.066,35.394 141.4,35.7273 143.5,37.5 Z"/></g>
<g><path style="opacity:1" fill="#ef940a" d="M 166.5,35.5 C 166.147,41.3127 165.147,46.9793 163.5,52.5C 163.155,55.1979 161.822,57.1979 159.5,58.5C 157.833,58.5 156.167,58.5 154.5,58.5C 154.5,59.8333 154.5,61.1667 154.5,62.5C 152.801,62.3398 151.134,62.5065 149.5,63C 150.993,64.1562 150.826,64.9896 149,65.5C 147.588,63.839 147.921,62.1723 150,60.5C 152.047,55.2188 151.88,50.0521 149.5,45C 149.164,43.9701 148.497,43.4701 147.5,43.5C 147.167,43.5 146.833,43.5 146.5,43.5C 145.738,41.7376 144.404,40.7376 142.5,40.5C 141.833,39.8333 141.167,39.1667 140.5,38.5C 141.209,37.596 142.209,37.2627 143.5,37.5C 144.167,37.5 144.833,37.5 145.5,37.5C 146.833,37.5 148.167,37.5 149.5,37.5C 150.568,38.4345 151.901,38.7678 153.5,38.5C 154.048,40.5323 155.381,41.5323 157.5,41.5C 157.5,40.5 157.5,39.5 157.5,38.5C 159.492,38.6715 161.158,38.0049 162.5,36.5C 164.219,37.7887 165.553,37.4554 166.5,35.5 Z"/></g>
<g><path style="opacity:0.988" fill="#89836d" d="M 142.5,40.5 C 144.404,40.7376 145.738,41.7376 146.5,43.5C 145.01,45.2798 143.01,45.9465 140.5,45.5C 139.211,44.3634 138.211,43.0301 137.5,41.5C 138.919,40.5489 140.585,40.2155 142.5,40.5 Z"/></g>
<g><path style="opacity:1" fill="#5e3276" d="M 127.5,40.5 C 127.5,41.1667 127.5,41.8333 127.5,42.5C 126.833,42.8333 126.167,43.1667 125.5,43.5C 124.833,43.5 124.5,43.8333 124.5,44.5C 124.5,45.1667 124.5,45.8333 124.5,46.5C 123.833,46.5 123.5,46.8333 123.5,47.5C 123.5,48.5 123.5,49.5 123.5,50.5C 122.833,50.5 122.5,50.8333 122.5,51.5C 122.5,52.1667 122.5,52.8333 122.5,53.5C 119.189,52.1886 116.855,49.8553 115.5,46.5C 117.604,46.7989 119.604,46.4656 121.5,45.5C 122.931,43.0623 124.931,41.3956 127.5,40.5 Z"/></g>
<g><path style="opacity:0.965" fill="#7c7c82" d="M 137.5,41.5 C 138.211,43.0301 139.211,44.3634 140.5,45.5C 137.372,46.6319 134.038,47.4652 130.5,48C 129.244,48.4169 128.577,49.2502 128.5,50.5C 128.5,51.1667 128.5,51.8333 128.5,52.5C 127.833,52.5 127.5,52.8333 127.5,53.5C 127.5,53.8333 127.5,54.1667 127.5,54.5C 127.5,55.1667 127.5,55.8333 127.5,56.5C 126.566,57.5676 126.232,58.901 126.5,60.5C 125.18,59.0582 123.514,58.3915 121.5,58.5C 121.366,56.7085 121.699,55.0418 122.5,53.5C 122.5,52.8333 122.5,52.1667 122.5,51.5C 123.167,51.5 123.5,51.1667 123.5,50.5C 123.5,49.5 123.5,48.5 123.5,47.5C 124.167,47.5 124.5,47.1667 124.5,46.5C 124.5,45.8333 124.5,45.1667 124.5,44.5C 125.167,44.5 125.5,44.1667 125.5,43.5C 126.167,43.1667 126.833,42.8333 127.5,42.5C 127.435,42.9382 127.601,43.2716 128,43.5C 131.049,42.3899 134.216,41.7233 137.5,41.5 Z"/></g>
<g><path style="opacity:0.82" fill="#797976" d="M 168.5,61.5 C 169.215,59.4368 169.215,57.1035 168.5,54.5C 170.753,49.086 172.086,43.4194 172.5,37.5C 171.653,32.4205 170.82,27.4205 170,22.5C 173.86,27.6816 175.36,33.5149 174.5,40C 175.009,47.9605 173.009,55.1271 168.5,61.5 Z"/></g>
<g><path style="opacity:0.984" fill="#5d366d" d="M 127.5,54.5 C 129.617,56.8301 132.117,58.8301 135,60.5C 135.483,59.552 135.649,58.552 135.5,57.5C 138.207,59.8432 140.874,62.1765 143.5,64.5C 138.207,63.5681 133.207,61.7347 128.5,59C 127.748,58.3292 127.414,57.4959 127.5,56.5C 127.5,55.8333 127.5,55.1667 127.5,54.5 Z"/></g>
<g><path style="opacity:1" fill="#592574" d="M 128.5,50.5 C 131.091,52.4244 133.425,54.7578 135.5,57.5C 135.649,58.552 135.483,59.552 135,60.5C 132.117,58.8301 129.617,56.8301 127.5,54.5C 127.5,54.1667 127.5,53.8333 127.5,53.5C 128.167,53.5 128.5,53.1667 128.5,52.5C 128.5,51.8333 128.5,51.1667 128.5,50.5 Z"/></g>
<g><path style="opacity:0.847" fill="#868785" d="M 168.5,54.5 C 169.215,57.1035 169.215,59.4368 168.5,61.5C 165.522,67.8117 160.855,72.4784 154.5,75.5C 153.376,74.1914 151.876,73.5247 150,73.5C 145.333,74.8333 140.667,76.1667 136,77.5C 133.422,77.3176 132.922,76.3176 134.5,74.5C 149.573,73.9712 160.906,67.3045 168.5,54.5 Z"/></g>
<g><path style="opacity:0.965" fill="#858687" d="M 99.5,50.5 C 101.482,54.4473 103.982,58.1139 107,61.5C 109.041,60.5769 111.208,60.2436 113.5,60.5C 114.525,60.8966 114.692,61.5632 114,62.5C 112.213,63.3431 110.38,63.5098 108.5,63C 107.17,64.633 106.504,66.133 106.5,67.5C 105.335,66.5089 104.168,65.5089 103,64.5C 102.098,64.7432 101.265,65.0766 100.5,65.5C 95.272,59.1535 92.6053,51.8202 92.5,43.5C 93.8335,45.3027 94.6668,47.9693 95,51.5C 96.1096,53.0368 97.6096,53.7035 99.5,53.5C 99.5,52.5 99.5,51.5 99.5,50.5 Z"/></g>
<g><path style="opacity:0.938" fill="#88898b" d="M 121.5,58.5 C 123.514,58.3915 125.18,59.0582 126.5,60.5C 125.972,61.7206 125.305,62.8873 124.5,64C 119.953,64.4288 115.619,65.2621 111.5,66.5C 109.075,66.684 109.075,67.3507 111.5,68.5C 111.291,69.086 110.957,69.586 110.5,70C 108.455,70.4901 106.455,70.3235 104.5,69.5C 102.833,68.5 101.5,67.1667 100.5,65.5C 101.265,65.0766 102.098,64.7432 103,64.5C 104.168,65.5089 105.335,66.5089 106.5,67.5C 106.504,66.133 107.17,64.633 108.5,63C 110.38,63.5098 112.213,63.3431 114,62.5C 114.692,61.5632 114.525,60.8966 113.5,60.5C 116.167,59.8333 118.833,59.1667 121.5,58.5 Z"/></g>
<g><path style="opacity:1" fill="#e49524" d="M 147.5,43.5 C 148.497,43.4701 149.164,43.9701 149.5,45C 151.88,50.0521 152.047,55.2188 150,60.5C 147.921,62.1723 147.588,63.839 149,65.5C 150.826,64.9896 150.993,64.1562 149.5,63C 151.134,62.5065 152.801,62.3398 154.5,62.5C 154.5,61.1667 154.5,59.8333 154.5,58.5C 156.167,58.5 157.833,58.5 159.5,58.5C 155.791,63.8615 150.791,67.5282 144.5,69.5C 141.752,69.5983 141.086,68.5983 142.5,66.5C 142.833,65.8333 143.167,65.1667 143.5,64.5C 150.403,58.5564 151.736,51.5564 147.5,43.5 Z"/></g>
<g><path style="opacity:1" fill="#89898b" d="M 111.5,66.5 C 117.979,70.7672 124.979,73.4339 132.5,74.5C 131.005,74.4148 130.005,75.0815 129.5,76.5C 130.994,77.9047 131.994,79.5713 132.5,81.5C 121.468,81.1656 112.134,77.1656 104.5,69.5C 106.455,70.3235 108.455,70.4901 110.5,70C 110.957,69.586 111.291,69.086 111.5,68.5C 109.075,67.3507 109.075,66.684 111.5,66.5 Z"/></g>
<g><path style="opacity:0.945" fill="#cc954d" d="M 142.5,66.5 C 141.086,68.5983 141.752,69.5983 144.5,69.5C 141.88,71.1051 139.047,72.4384 136,73.5C 136.82,70.1699 138.987,67.8366 142.5,66.5 Z"/></g>
<g><path style="opacity:1" fill="#89888c" d="M 154.5,75.5 C 147.856,79.618 140.523,81.618 132.5,81.5C 131.994,79.5713 130.994,77.9047 129.5,76.5C 130.005,75.0815 131.005,74.4148 132.5,74.5C 133.167,74.5 133.833,74.5 134.5,74.5C 132.922,76.3176 133.422,77.3176 136,77.5C 140.667,76.1667 145.333,74.8333 150,73.5C 151.876,73.5247 153.376,74.1914 154.5,75.5 Z"/></g>
<g><path style="opacity:0.857" fill="#858585" d="M 178.5,85.5 C 183.586,87.8476 183.753,90.5142 179,93.5C 174.536,91.008 174.369,88.3414 178.5,85.5 Z"/></g>
<g><path style="opacity:0.987" fill="#858585" d="M 37.5,87.5 C 41.9083,87.062 43.5749,89.062 42.5,93.5C 40.8333,93.5 39.1667,93.5 37.5,93.5C 37.5,100.167 37.5,106.833 37.5,113.5C 36.1667,113.5 34.8333,113.5 33.5,113.5C 34.172,112.733 35.0053,112.066 36,111.5C 36.3251,105.215 36.4918,99.0485 36.5,93C 35.5509,92.3828 34.7175,92.5494 34,93.5C 33.6758,91.4311 32.8425,91.0977 31.5,92.5C 27.749,91.7246 27.5823,90.3912 31,88.5C 33.7372,89.6105 36.5706,89.7772 39.5,89C 38.5842,88.7216 37.9175,88.2216 37.5,87.5 Z"/></g>
<g><path style="opacity:1" fill="#89898b" d="M 37.5,87.5 C 37.9175,88.2216 38.5842,88.7216 39.5,89C 36.5706,89.7772 33.7372,89.6105 31,88.5C 27.5823,90.3912 27.749,91.7246 31.5,92.5C 32.8425,91.0977 33.6758,91.4311 34,93.5C 34.7175,92.5494 35.5509,92.3828 36.5,93C 36.4918,99.0485 36.3251,105.215 36,111.5C 35.0053,112.066 34.172,112.733 33.5,113.5C 32.5,113.5 31.5,113.5 30.5,113.5C 30.5,106.833 30.5,100.167 30.5,93.5C 28.8333,93.5 27.1667,93.5 25.5,93.5C 25.5,91.5 25.5,89.5 25.5,87.5C 29.5,87.5 33.5,87.5 37.5,87.5 Z"/></g>
<g><path style="opacity:0.486" fill="#898a8a" d="M 133.5,95.5 C 131.771,96.1175 130.271,97.1175 129,98.5C 128.667,97.8333 128.333,97.1667 128,96.5C 127.601,96.7284 127.435,97.0618 127.5,97.5C 126.833,98.1667 126.167,98.8333 125.5,99.5C 125.565,99.0618 125.399,98.7284 125,98.5C 124.722,99.4158 124.222,100.082 123.5,100.5C 122.226,99.8106 122.226,98.9772 123.5,98C 122.756,96.9614 121.756,96.4614 120.5,96.5C 120.23,88.919 123.563,86.2523 130.5,88.5C 131.7,90.7707 132.7,93.104 133.5,95.5 Z"/></g>
<g><path style="opacity:1" fill="#888888" d="M 156.5,86.5 C 158.223,85.193 160.057,85.193 162,86.5C 162.497,89.146 162.664,91.8127 162.5,94.5C 165.877,94.0679 168.877,94.7345 171.5,96.5C 169.865,97.8146 168.199,97.8146 166.5,96.5C 163.914,98.1832 161.247,99.3499 158.5,100C 159.022,99.4387 159.355,98.772 159.5,98C 158.419,96.6293 157.585,95.1293 157,93.5C 157.497,90.6519 157.33,88.3186 156.5,86.5 Z"/></g>
<g><path style="opacity:0.995" fill="#858587" d="M 106.5,96.5 C 106.631,97.2389 106.464,97.9056 106,98.5C 105.167,97.5 104.333,96.5 103.5,95.5C 103.599,97.1495 102.599,98.4829 100.5,99.5C 99.5,99.5 98.5,99.5 97.5,99.5C 97.5,102.833 97.5,106.167 97.5,109.5C 96.3567,106.024 96.1901,102.358 97,98.5C 98.7566,98.8671 100.257,98.0338 101.5,96C 98.5897,95.5545 95.9231,96.2212 93.5,98C 94.9561,98.4226 95.4561,99.2559 95,100.5C 93.5861,99.5868 92.0861,99.5868 90.5,100.5C 89.791,99.596 88.791,99.2627 87.5,99.5C 87.5,104.167 87.5,108.833 87.5,113.5C 85.1667,113.5 82.8333,113.5 80.5,113.5C 80.5,107.167 80.5,100.833 80.5,94.5C 85.337,92.8979 90.0037,93.2312 94.5,95.5C 98.9527,92.5054 102.953,92.8387 106.5,96.5 Z"/></g>
<g><path style="opacity:1" fill="#858587" d="M 175.5,94.5 C 177.833,94.5 180.167,94.5 182.5,94.5C 182.5,100.833 182.5,107.167 182.5,113.5C 180.167,113.5 177.833,113.5 175.5,113.5C 175.5,107.167 175.5,100.833 175.5,94.5 Z"/></g>
<g><path style="opacity:0.981" fill="#88888a" d="M 202.5,100.5 C 200.217,100.193 198.05,98.8594 196,96.5C 195,97.8333 194,97.8333 193,96.5C 190.799,99.1207 188.965,101.954 187.5,105C 188.416,105.374 189.25,105.874 190,106.5C 189.647,111.905 191.647,112.905 196,109.5C 197.313,110.287 198.48,109.954 199.5,108.5C 199.81,107.262 200.31,107.262 201,108.5C 202.009,110.025 202.509,111.692 202.5,113.5C 188.104,116.936 182.604,111.602 186,97.5C 192.873,91.7473 198.373,92.7473 202.5,100.5 Z"/></g>
<g><path style="opacity:1" fill="#8b8b8d" d="M 236.5,106.5 C 235.571,105.685 234.571,104.852 233.5,104C 234.381,103.292 235.047,102.458 235.5,101.5C 235.167,100.833 234.833,100.167 234.5,99.5C 235.738,99.19 235.738,98.69 234.5,98C 232.888,97.2797 231.388,97.4464 230,98.5C 229.184,97.1772 228.017,96.5106 226.5,96.5C 233.009,92.1639 238.175,93.4973 242,100.5C 242.494,102.134 242.66,103.801 242.5,105.5C 240.435,105.517 238.435,105.85 236.5,106.5 Z"/></g>
<g><path style="opacity:0.773" fill="#868788" d="M 133.5,95.5 C 135.575,101.391 137.242,107.391 138.5,113.5C 136.076,113.808 133.743,113.474 131.5,112.5C 130.754,111.264 130.421,109.93 130.5,108.5C 127.721,108.279 125.054,108.612 122.5,109.5C 122.461,108.244 122.961,107.244 124,106.5C 127.346,107.089 127.346,106.422 124,104.5C 123.51,103.207 123.343,101.873 123.5,100.5C 124.222,100.082 124.722,99.4158 125,98.5C 125.399,98.7284 125.565,99.0618 125.5,99.5C 125.67,100.822 125.337,101.989 124.5,103C 125.793,103.49 127.127,103.657 128.5,103.5C 128.167,101.5 127.833,99.5 127.5,97.5C 127.435,97.0618 127.601,96.7284 128,96.5C 128.333,97.1667 128.667,97.8333 129,98.5C 130.271,97.1175 131.771,96.1175 133.5,95.5 Z"/></g>
<g><path style="opacity:1" fill="#8a8a8c" d="M 152.5,98.5 C 150.131,98.2018 147.798,98.2018 145.5,98.5C 145.81,100.201 145.31,101.868 144,103.5C 143.549,101.071 142.715,100.904 141.5,103C 144.198,105.848 143.531,107.682 139.5,108.5C 137.824,97.5093 142.491,92.8427 153.5,94.5C 153.768,96.099 153.434,97.4324 152.5,98.5 Z"/></g>
<g><path style="opacity:0.999" fill="#8b8b8e" d="M 172.5,100.5 C 172.5,104.833 172.5,109.167 172.5,113.5C 170.208,113.756 168.041,113.423 166,112.5C 165.501,108.514 165.334,104.514 165.5,100.5C 166.75,100.423 167.583,99.756 168,98.5C 169.309,100.891 170.309,100.891 171,98.5C 171.278,99.4158 171.778,100.082 172.5,100.5 Z"/></g>
<g><path style="opacity:0.999" fill="#868688" d="M 106.5,96.5 C 107.117,96.6107 107.617,96.944 108,97.5C 108.499,102.823 108.666,108.156 108.5,113.5C 106.167,113.5 103.833,113.5 101.5,113.5C 101.774,108.737 101.441,104.07 100.5,99.5C 102.599,98.4829 103.599,97.1495 103.5,95.5C 104.333,96.5 105.167,97.5 106,98.5C 106.464,97.9056 106.631,97.2389 106.5,96.5 Z"/></g>
<g><path style="opacity:1" fill="#8a8b8c" d="M 77.5,101.5 C 76.6981,102.952 76.1981,104.618 76,106.5C 75.4793,103.371 73.9793,103.038 71.5,105.5C 70.0413,105.433 68.7079,105.766 67.5,106.5C 68.4453,104.221 70.112,102.554 72.5,101.5C 72.3764,100.893 72.0431,100.56 71.5,100.5C 68.6417,99.834 65.6417,99.1674 62.5,98.5C 61.2889,97.2798 61.2889,96.1131 62.5,95C 66.8515,93.1053 71.1849,93.1053 75.5,95C 76.9437,96.7635 77.9437,98.7635 78.5,101C 78.2716,101.399 77.9382,101.565 77.5,101.5 Z"/></g>
<g><path style="opacity:1" fill="#88898a" d="M 97.5,109.5 C 97.5,110.833 97.5,112.167 97.5,113.5C 95.1667,113.5 92.8333,113.5 90.5,113.5C 90.5,109.167 90.5,104.833 90.5,100.5C 92.0861,99.5868 93.5861,99.5868 95,100.5C 95.4561,99.2559 94.9561,98.4226 93.5,98C 95.9231,96.2212 98.5897,95.5545 101.5,96C 100.257,98.0338 98.7566,98.8671 97,98.5C 96.1901,102.358 96.3567,106.024 97.5,109.5 Z"/></g>
<g><path style="opacity:0.875" fill="#848485" d="M 156.5,86.5 C 157.33,88.3186 157.497,90.6519 157,93.5C 157.585,95.1293 158.419,96.6293 159.5,98C 159.355,98.772 159.022,99.4387 158.5,100C 161.247,99.3499 163.914,98.1832 166.5,96.5C 168.199,97.8146 169.865,97.8146 171.5,96.5C 172.434,97.5676 172.768,98.901 172.5,100.5C 171.778,100.082 171.278,99.4158 171,98.5C 170.309,100.891 169.309,100.891 168,98.5C 167.583,99.756 166.75,100.423 165.5,100.5C 164.791,99.596 163.791,99.2627 162.5,99.5C 162.5,104.167 162.5,108.833 162.5,113.5C 160.167,113.5 157.833,113.5 155.5,113.5C 155.173,104.318 155.507,95.3178 156.5,86.5 Z"/></g>
<g><path style="opacity:1" fill="#848588" d="M 202.5,100.5 C 202.5,102.167 202.5,103.833 202.5,105.5C 198.858,106.08 195.191,106.58 191.5,107C 193.937,108.375 196.603,108.875 199.5,108.5C 198.48,109.954 197.313,110.287 196,109.5C 191.647,112.905 189.647,111.905 190,106.5C 189.25,105.874 188.416,105.374 187.5,105C 188.965,101.954 190.799,99.1207 193,96.5C 194,97.8333 195,97.8333 196,96.5C 198.05,98.8594 200.217,100.193 202.5,100.5 Z M 191.5,101.5 C 192.749,99.0275 194.415,98.8609 196.5,101C 194.866,101.494 193.199,101.66 191.5,101.5 Z"/></g>
<g><path style="opacity:0.664" fill="#888889" d="M 221.5,102.5 C 220.182,105.808 218.849,109.141 217.5,112.5C 214.894,113.652 212.227,113.818 209.5,113C 208.944,112.617 208.611,112.117 208.5,111.5C 210.338,111.023 212.172,110.69 214,110.5C 215.116,106.54 216.116,102.874 217,99.5C 218.751,100.222 220.251,101.222 221.5,102.5 Z"/></g>
<g><path style="opacity:0.337" fill="#89898b" d="M 48.5,94.5 C 56.9077,92.9323 60.5744,96.5989 59.5,105.5C 56.4824,105.704 53.4824,106.037 50.5,106.5C 47.8055,103.706 48.3055,102.706 52,103.5C 53.3803,102.744 53.547,102.078 52.5,101.5C 51.3931,99.1534 49.7264,98.82 47.5,100.5C 46.7784,100.918 46.2784,101.584 46,102.5C 42.973,98.7161 44.1397,96.2161 49.5,95C 49.2716,94.6012 48.9382,94.4346 48.5,94.5 Z M 52.5,101.5 C 50.5853,101.784 48.9187,101.451 47.5,100.5C 49.7264,98.82 51.3931,99.1534 52.5,101.5 Z"/></g>
<g><path style="opacity:0.429" fill="#858687" d="M 221.5,102.5 C 220.251,101.222 218.751,100.222 217,99.5C 216.116,102.874 215.116,106.54 214,110.5C 212.172,110.69 210.338,111.023 208.5,111.5C 206.703,106.113 204.703,100.779 202.5,95.5C 205.167,94.1667 207.833,94.1667 210.5,95.5C 211.488,98.4501 212.321,101.45 213,104.5C 214.393,101.438 215.559,98.2716 216.5,95C 218.81,94.5034 221.143,94.3367 223.5,94.5C 223.416,97.3274 222.75,99.994 221.5,102.5 Z"/></g>
<g><path style="opacity:0.943" fill="#89898b" d="M 120.5,96.5 C 121.756,96.4614 122.756,96.9614 123.5,98C 122.226,98.9772 122.226,99.8106 123.5,100.5C 123.343,101.873 123.51,103.207 124,104.5C 127.346,106.422 127.346,107.089 124,106.5C 122.961,107.244 122.461,108.244 122.5,109.5C 122.5,110.833 122.5,112.167 122.5,113.5C 119.753,113.813 117.086,113.48 114.5,112.5C 116.332,106.99 118.332,101.657 120.5,96.5 Z"/></g>
<g><path style="opacity:0.893" fill="#878789" d="M 226.5,96.5 C 228.017,96.5106 229.184,97.1772 230,98.5C 231.388,97.4464 232.888,97.2797 234.5,98C 235.738,98.69 235.738,99.19 234.5,99.5C 233.022,99.238 231.689,99.5713 230.5,100.5C 232.045,101.452 233.712,101.785 235.5,101.5C 235.047,102.458 234.381,103.292 233.5,104C 234.571,104.852 235.571,105.685 236.5,106.5C 234.473,106.338 232.473,106.505 230.5,107C 233.353,108.808 236.353,108.975 239.5,107.5C 241.086,109.173 241.753,111.173 241.5,113.5C 236.003,115.278 230.836,114.611 226,111.5C 222.544,106.262 222.71,101.262 226.5,96.5 Z"/></g>
<g><path style="opacity:1" fill="#878689" d="M 152.5,98.5 C 151.048,99.3019 149.382,99.8019 147.5,100C 146.167,102.667 146.167,105.333 147.5,108C 151.702,107.022 153.702,108.855 153.5,113.5C 147.522,115.397 142.855,113.73 139.5,108.5C 143.531,107.682 144.198,105.848 141.5,103C 142.715,100.904 143.549,101.071 144,103.5C 145.31,101.868 145.81,100.201 145.5,98.5C 147.798,98.2018 150.131,98.2018 152.5,98.5 Z"/></g>
<g><path style="opacity:0.991" fill="#87888a" d="M 71.5,100.5 C 72.0431,100.56 72.3764,100.893 72.5,101.5C 70.112,102.554 68.4453,104.221 67.5,106.5C 68.1834,108.176 69.5168,108.843 71.5,108.5C 71.5,107.5 71.5,106.5 71.5,105.5C 73.9793,103.038 75.4793,103.371 76,106.5C 76.1981,104.618 76.6981,102.952 77.5,101.5C 77.5,105.5 77.5,109.5 77.5,113.5C 75.0799,113.292 72.7466,113.626 70.5,114.5C 63.2682,114.773 60.1016,111.44 61,104.5C 63.9949,101.89 67.4949,100.557 71.5,100.5 Z M 71.5,105.5 C 71.5,106.5 71.5,107.5 71.5,108.5C 69.5168,108.843 68.1834,108.176 67.5,106.5C 68.7079,105.766 70.0413,105.433 71.5,105.5 Z"/></g>
<g><path style="opacity:0.957" fill="#868688" d="M 48.5,94.5 C 48.9382,94.4346 49.2716,94.6012 49.5,95C 44.1397,96.2161 42.973,98.7161 46,102.5C 46.2784,101.584 46.7784,100.918 47.5,100.5C 48.9187,101.451 50.5853,101.784 52.5,101.5C 53.547,102.078 53.3803,102.744 52,103.5C 48.3055,102.706 47.8055,103.706 50.5,106.5C 48.6214,106.393 48.2881,106.893 49.5,108C 52.2356,108.422 54.9023,108.422 57.5,108C 59.1458,109.555 59.4791,111.221 58.5,113C 46.1512,116.596 40.6512,112.096 42,99.5C 43.1912,96.4659 45.3579,94.7993 48.5,94.5 Z"/></g>
</svg>
